<svg width="148" height="52" viewBox="0 0 148 52" fill="none" xmlns="http://www.w3.org/2000/svg">
<path d="M0.829648 0.319062H10.9443C12.9213 0.319062 14.6395 0.584947 16.0987 1.11672C17.5579 1.64849 18.6818 2.43551 19.4702 3.47777C20.2705 4.52004 20.6706 5.80693 20.6706 7.33842C20.6706 8.66785 20.4411 9.77925 19.9822 10.6726C19.5232 11.566 18.8818 12.3052 18.0581 12.8901C17.2461 13.4644 16.2988 13.9377 15.2161 14.3099L13.1861 15.3469H4.69545L4.66015 11.0236H10.9443C11.7327 11.0236 12.3859 10.896 12.9037 10.6407C13.4215 10.3855 13.8098 10.0239 14.0687 9.5559C14.3394 9.07731 14.4747 8.50832 14.4747 7.84892C14.4747 7.17889 14.3394 6.60458 14.0687 6.12599C13.798 5.6474 13.3979 5.28047 12.8684 5.02522C12.3506 4.76998 11.7092 4.64235 10.9443 4.64235H7.02553V23.5468H0.829648V0.319062ZM14.8984 23.5468L9.21439 13.273L15.781 13.2411L21.5355 23.3075V23.5468H14.8984Z" fill="white"/>
<path d="M88.8062 17.3729C88.8062 17.0113 88.7474 16.6869 88.6297 16.3998C88.512 16.102 88.2943 15.8255 87.9766 15.5702C87.6588 15.315 87.1999 15.0597 86.5997 14.8045C86.0113 14.5386 85.2346 14.2621 84.2696 13.9749C83.1399 13.6346 82.0513 13.2517 81.004 12.8263C79.9566 12.3902 79.0211 11.8851 78.1973 11.3107C77.3735 10.7258 76.7204 10.0451 76.2379 9.26875C75.7554 8.48173 75.5142 7.56708 75.5142 6.52482C75.5142 5.52509 75.7613 4.6264 76.2556 3.82874C76.7498 3.02045 77.4383 2.33447 78.3209 1.77079C79.2152 1.19648 80.2626 0.760431 81.4629 0.46264C82.6633 0.154213 83.9754 0 85.3994 0C87.2822 0 88.9415 0.297791 90.3772 0.893373C91.8247 1.47832 92.9544 2.3132 93.7664 3.39801C94.5902 4.47218 95.0021 5.74311 95.0021 7.2108H88.8415C88.8415 6.62585 88.7062 6.11004 88.4355 5.66335C88.1766 5.21666 87.7824 4.86569 87.2528 4.61044C86.7233 4.35519 86.0584 4.22757 85.2581 4.22757C84.4814 4.22757 83.8283 4.33392 83.2988 4.54663C82.7692 4.75934 82.3691 5.0465 82.0984 5.4081C81.8278 5.75907 81.6924 6.14726 81.6924 6.57268C81.6924 6.92364 81.7983 7.24271 82.0102 7.52986C82.2337 7.80638 82.5456 8.06695 82.9457 8.31156C83.3576 8.55618 83.8519 8.79016 84.4285 9.0135C85.0169 9.23684 85.6759 9.45487 86.4055 9.66758C87.7706 10.0611 88.9827 10.5025 90.0419 10.9917C91.1127 11.4703 92.013 12.018 92.7426 12.6349C93.484 13.2411 94.043 13.9324 94.4196 14.7088C94.8079 15.4851 95.0021 16.3626 95.0021 17.341C95.0021 18.3833 94.7785 19.3086 94.3313 20.1169C93.8841 20.9251 93.2428 21.6111 92.4072 22.1748C91.5717 22.7278 90.5714 23.1479 89.4064 23.4351C88.2413 23.7223 86.941 23.8658 85.5053 23.8658C84.1872 23.8658 82.8869 23.7169 81.6042 23.4191C80.3332 23.1107 79.1799 22.6428 78.1444 22.0153C77.1088 21.3771 76.2791 20.5635 75.6554 19.5744C75.0435 18.5747 74.7375 17.3889 74.7375 16.0169H80.951C80.951 16.6976 81.0511 17.2719 81.2511 17.7398C81.4512 18.2078 81.7454 18.5854 82.1337 18.8725C82.5221 19.149 82.9987 19.3511 83.5635 19.4787C84.1284 19.5957 84.7756 19.6542 85.5053 19.6542C86.2937 19.6542 86.9292 19.5532 87.4117 19.3511C87.8942 19.1384 88.2472 18.8619 88.4708 18.5215C88.6944 18.1706 88.8062 17.7877 88.8062 17.3729Z" fill="white"/>
<path d="M14.0687 45.5071C14.0687 45.1455 14.0099 44.8211 13.8922 44.534C13.7745 44.2362 13.5568 43.9596 13.2391 43.7044C12.9213 43.4491 12.4624 43.1939 11.8622 42.9386C11.2738 42.6728 10.4971 42.3962 9.53212 42.1091C8.40239 41.7687 7.31385 41.3859 6.26649 40.9605C5.21913 40.5244 4.28357 40.0192 3.45981 39.4449C2.63604 38.86 1.98292 38.1793 1.50043 37.4029C1.01794 36.6159 0.776692 35.7013 0.776692 34.659C0.776692 33.6593 1.02382 32.7606 1.51808 31.9629C2.01234 31.1546 2.70077 30.4686 3.58337 29.905C4.47774 29.3307 5.5251 28.8946 6.72544 28.5968C7.92578 28.2884 9.23792 28.1342 10.6619 28.1342C12.5447 28.1342 14.204 28.432 15.6397 29.0275C17.0872 29.6125 18.2169 30.4474 19.0289 31.5322C19.8527 32.6064 20.2646 33.8773 20.2646 35.345H14.104C14.104 34.76 13.9687 34.2442 13.698 33.7975C13.4391 33.3508 13.0449 32.9999 12.5153 32.7446C11.9858 32.4894 11.3209 32.3617 10.5206 32.3617C9.74395 32.3617 9.09082 32.4681 8.56126 32.6808C8.0317 32.8935 7.63158 33.1807 7.36092 33.5423C7.09025 33.8932 6.95492 34.2814 6.95492 34.7068C6.95492 35.0578 7.06083 35.3769 7.27266 35.664C7.49625 35.9406 7.8081 36.2011 8.20822 36.4457C8.6201 36.6903 9.11436 36.9243 9.69099 37.1477C10.2794 37.371 10.9384 37.589 11.668 37.8017C13.0331 38.1953 14.2452 38.6366 15.3044 39.1259C16.3752 39.6044 17.2755 40.1522 18.0051 40.769C18.7465 41.3752 19.3055 42.0665 19.6821 42.8429C20.0704 43.6193 20.2646 44.4967 20.2646 45.4752C20.2646 46.5175 20.041 47.4427 19.5938 48.251C19.1466 49.0593 18.5053 49.7453 17.6697 50.309C16.8342 50.862 15.8339 51.2821 14.6689 51.5693C13.5038 51.8564 12.2035 52 10.7678 52C9.44975 52 8.14938 51.8511 6.86666 51.5533C5.59571 51.2449 4.44244 50.7769 3.40685 50.1494C2.37126 49.5113 1.54162 48.6977 0.917908 47.7086C0.305969 46.7089 0 45.523 0 44.1511H6.21353C6.21353 44.8317 6.31356 45.4061 6.51362 45.874C6.71367 46.342 7.00788 46.7195 7.39622 47.0067C7.78457 47.2832 8.26117 47.4853 8.82604 47.6129C9.39091 47.7299 10.0381 47.7884 10.7678 47.7884C11.5562 47.7884 12.1917 47.6873 12.6742 47.4853C13.1567 47.2726 13.5097 46.996 13.7333 46.6557C13.9569 46.3047 14.0687 45.9219 14.0687 45.5071Z" fill="white"/>
<path d="M42.7752 43.8161H48.9535C48.8711 45.4326 48.3886 46.8578 47.506 48.0915C46.6234 49.3252 45.3995 50.2877 43.8344 50.979C42.281 51.6597 40.4452 52 38.3269 52C36.6088 52 35.073 51.7394 33.7197 51.2183C32.3782 50.6972 31.2367 49.9474 30.2952 48.9689C29.3655 47.9905 28.6536 46.8046 28.1593 45.4114C27.6768 44.0181 27.4356 42.4494 27.4356 40.7052V39.4449C27.4356 37.7007 27.6886 36.132 28.1946 34.7388C28.7124 33.3349 29.442 32.1437 30.3835 31.1653C31.3367 30.1762 32.4782 29.4211 33.808 28.8999C35.1378 28.3788 36.6147 28.1182 38.2386 28.1182C40.4746 28.1182 42.3633 28.4798 43.905 29.203C45.4466 29.9262 46.641 30.9206 47.4883 32.1863C48.3356 33.4412 48.8358 34.8717 48.9888 36.4776H42.8105C42.787 35.6055 42.6222 34.877 42.3163 34.2921C42.0103 33.6965 41.5278 33.2498 40.8688 32.952C40.2098 32.6542 39.3331 32.5053 38.2386 32.5053C37.4737 32.5053 36.8088 32.6329 36.244 32.8882C35.6791 33.1434 35.2084 33.5476 34.8318 34.1006C34.4552 34.6537 34.1728 35.3716 33.9845 36.2543C33.808 37.1264 33.7197 38.1793 33.7197 39.413V40.7052C33.7197 41.9389 33.8021 42.9918 33.9668 43.8639C34.1316 44.736 34.3964 45.4486 34.7612 46.0016C35.126 46.5547 35.5967 46.9641 36.1734 47.23C36.7618 47.4853 37.4796 47.6129 38.3269 47.6129C39.2683 47.6129 40.0627 47.48 40.7099 47.2141C41.3572 46.9376 41.8573 46.5228 42.2104 45.9697C42.5634 45.4061 42.7517 44.6882 42.7752 43.8161Z" fill="white"/>
<path d="M73.9001 37.6741V41.9815H60.714V37.6741H73.9001ZM62.7793 28.4532V51.6809H56.5834V28.4532H62.7793ZM78.066 28.4532V51.6809H71.8877V28.4532H78.066Z" fill="white"/>
<path d="M105.738 39.6044V40.5457C105.738 42.3218 105.462 43.9171 104.908 45.3316C104.367 46.7355 103.596 47.9373 102.596 48.937C101.596 49.9261 100.413 50.6865 99.0479 51.2183C97.6828 51.7394 96.1765 52 94.529 52C92.8697 52 91.3516 51.7394 89.9748 51.2183C88.6097 50.6865 87.4211 49.9261 86.409 48.937C85.4088 47.9373 84.6321 46.7355 84.079 45.3316C83.5376 43.9171 83.267 42.3218 83.267 40.5457V39.6044C83.267 37.8283 83.5376 36.233 84.079 34.8185C84.6321 33.404 85.4029 32.2022 86.3914 31.2131C87.3917 30.2134 88.5744 29.453 89.9395 28.9318C91.3163 28.4001 92.8344 28.1342 94.4937 28.1342C96.1412 28.1342 97.6475 28.4001 99.0126 28.9318C100.389 29.453 101.578 30.2134 102.578 31.2131C103.579 32.2022 104.355 33.404 104.908 34.8185C105.462 36.233 105.738 37.8283 105.738 39.6044ZM99.4539 40.5457V39.5725C99.4539 38.4239 99.3421 37.4136 99.1185 36.5415C98.9067 35.6587 98.589 34.9196 98.1653 34.324C97.7417 33.7284 97.218 33.2817 96.5943 32.9839C95.9824 32.6755 95.2822 32.5213 94.4937 32.5213C93.6699 32.5213 92.9521 32.6755 92.3401 32.9839C91.7282 33.2817 91.2163 33.7284 90.8044 34.324C90.3925 34.9196 90.0807 35.6587 89.8689 36.5415C89.6688 37.4136 89.5688 38.4239 89.5688 39.5725V40.5457C89.5688 41.6837 89.6688 42.694 89.8689 43.5768C90.0807 44.4489 90.3925 45.188 90.8044 45.7942C91.2281 46.4005 91.7459 46.8578 92.3578 47.1662C92.9815 47.4746 93.7052 47.6289 94.529 47.6289C95.3175 47.6289 96.0177 47.4746 96.6296 47.1662C97.2415 46.8578 97.7535 46.4005 98.1653 45.7942C98.589 45.188 98.9067 44.4489 99.1185 43.5768C99.3421 42.694 99.4539 41.6837 99.4539 40.5457Z" fill="white"/>
<path d="M129.252 39.6044V40.5457C129.252 42.3218 128.976 43.9171 128.422 45.3316C127.881 46.7355 127.11 47.9373 126.11 48.937C125.11 49.9261 123.927 50.6865 122.562 51.2183C121.197 51.7394 119.691 52 118.043 52C116.384 52 114.866 51.7394 113.489 51.2183C112.124 50.6865 110.935 49.9261 109.923 48.937C108.923 47.9373 108.146 46.7355 107.593 45.3316C107.052 43.9171 106.781 42.3218 106.781 40.5457V39.6044C106.781 37.8283 107.052 36.233 107.593 34.8185C108.146 33.404 108.917 32.2022 109.905 31.2131C110.906 30.2134 112.088 29.453 113.453 28.9318C114.83 28.4001 116.348 28.1342 118.008 28.1342C119.655 28.1342 121.162 28.4001 122.527 28.9318C123.903 29.453 125.092 30.2134 126.092 31.2131C127.093 32.2022 127.869 33.404 128.422 34.8185C128.976 36.233 129.252 37.8283 129.252 39.6044ZM122.968 40.5457V39.5725C122.968 38.4239 122.856 37.4136 122.633 36.5415C122.421 35.6587 122.103 34.9196 121.679 34.324C121.256 33.7284 120.732 33.2817 120.108 32.9839C119.496 32.6755 118.796 32.5213 118.008 32.5213C117.184 32.5213 116.466 32.6755 115.854 32.9839C115.242 33.2817 114.73 33.7284 114.318 34.324C113.907 34.9196 113.595 35.6587 113.383 36.5415C113.183 37.4136 113.083 38.4239 113.083 39.5725V40.5457C113.083 41.6837 113.183 42.694 113.383 43.5768C113.595 44.4489 113.907 45.188 114.318 45.7942C114.742 46.4005 115.26 46.8578 115.872 47.1662C116.495 47.4746 117.219 47.6289 118.043 47.6289C118.831 47.6289 119.532 47.4746 120.144 47.1662C120.756 46.8578 121.267 46.4005 121.679 45.7942C122.103 45.188 122.421 44.4489 122.633 43.5768C122.856 42.694 122.968 41.6837 122.968 40.5457Z" fill="white"/>
<path d="M148 47.3736V51.6809H135.008V47.3736H148ZM137.215 28.4532V51.6809H131.019V28.4532H137.215Z" fill="white"/>
</svg>
